Coordinates
version=1
nRows=19
nColumns=30
inDegrees=yes

Units are S.I. units (second, meters, Newtons, ...)
Angles are in degrees.

endheader
time	floatyaw	floatroll	floatpitch	floatx	floaty	floatz	pro_sup_l	deviation_l	flexion_l	cmc_flexion_l	cmc_abduction_l	mp_flexion_l	ip_flexion_l	2mcp_flexion_l	2mcp_abduction_l	2pm_flexion_l	2md_flexion_l	3mcp_flexion_l	3mcp_abduction_l	3pm_flexion_l	3md_flexion_l	4mcp_flexion_l	4mcp_abduction_l	4pm_flexion_l	4md_flexion_l	5mcp_flexion_l	5mcp_abduction_l	5pm_flexion_l	5md_flexion_l
-0.995000	-160.147433	-5.066637	-73.570646	0.065127	-0.174553	-0.029892	90.669942	-1.400811	-1.397007	14.913394	-1.941404	-24.751759	-41.313865	31.791538	7.413689	41.813523	29.988220	27.018683	4.218016	43.568132	28.951826	16.192338	-4.582836	51.655581	36.101630	0.465000	-8.035969	63.038009	43.905535
-0.985000	-160.147433	-5.066637	-73.570646	0.065135	-0.174543	-0.029910	90.658578	-1.417540	-1.411173	14.899509	-1.980285	-24.721109	-41.313927	31.797903	7.407365	41.782331	30.017603	27.042216	4.214984	43.532582	28.938012	16.204840	-4.582298	51.627511	36.092750	0.467250	-8.028873	63.022542	43.869924
-0.975000	-160.147433	-5.066637	-73.570646	0.065148	-0.174545	-0.029915	90.660101	-1.423484	-1.412794	14.890336	-1.996877	-24.700785	-41.318579	31.791615	7.410943	41.768989	30.047247	27.055929	4.212963	43.503720	28.927014	16.210942	-4.582585	51.604965	36.084895	0.470026	-8.027909	63.000399	43.830879
-0.965000	-160.147433	-5.066637	-73.570646	0.065168	-0.174553	-0.029908	90.666094	-1.417191	-1.404017	14.880872	-1.992336	-24.685958	-41.317900	31.772000	7.418300	41.769520	30.075545	27.055251	4.211672	43.483161	28.920709	16.208074	-4.583424	51.586510	36.077283	0.470685	-8.027713	62.974304	43.793307
-0.955000	-160.147433	-5.066637	-73.570646	0.065190	-0.174565	-0.029892	90.667383	-1.403655	-1.388356	14.868249	-1.972096	-24.671313	-41.303232	31.745071	7.423622	41.775458	30.099945	27.041935	4.210707	43.470434	28.918904	16.197270	-4.584314	51.569589	36.069194	0.465289	-8.024358	62.948284	43.761744
-0.945000	-160.147433	-5.066637	-73.570646	0.065213	-0.174579	-0.029873	90.658325	-1.390236	-1.369975	14.851863	-1.944809	-24.654080	-41.271948	31.719436	7.423897	41.777580	30.118527	27.021821	4.210000	43.462194	28.919784	16.180980	-4.585146	51.553077	36.061408	0.451072	-8.016930	62.926040	43.738999
-0.935000	-160.147433	-5.066637	-73.570646	0.065232	-0.174592	-0.029856	90.639400	-1.382244	-1.352567	14.832905	-1.919954	-24.635181	-41.229078	31.701857	7.419169	41.769791	30.130995	27.001341	4.209874	43.453443	28.921340	16.161497	-4.586295	51.537934	36.056166	0.428658	-8.007252	62.909349	43.725205
-0.925000	-160.147433	-5.066637	-73.570646	0.065247	-0.174604	-0.029846	90.616897	-1.380381	-1.338520	14.813395	-1.905236	-24.618028	-41.185184	31.694935	7.411446	41.751059	30.138434	26.984940	4.210751	43.440027	28.922570	16.140898	-4.588215	51.526063	36.055817	0.402580	-7.998452	62.897798	43.717980
-0.915000	-160.147433	-5.066637	-73.570646	0.065259	-0.174614	-0.029842	90.599862	-1.380984	-1.328767	14.795146	-1.904575	-24.605988	-41.151777	31.697249	7.403373	41.724826	30.142334	26.974116	4.212829	43.420982	28.923807	16.121752	-4.590949	51.518629	36.061214	0.379542	-7.993355	62.890039	43.713786
-0.905000	-160.147433	-5.066637	-73.570646	0.065267	-0.174622	-0.029842	90.595576	-1.378575	-1.323132	14.779049	-1.917027	-24.600371	-41.136638	31.704827	7.397261	41.696682	30.143855	26.967656	4.215904	43.399332	28.926292	16.107075	-4.593950	51.515192	36.071056	0.365048	-7.993370	62.885458	43.709853
-0.895000	-160.147433	-5.066637	-73.570646	0.065274	-0.174627	-0.029844	90.605725	-1.369194	-1.320711	14.764794	-1.937104	-24.600133	-41.141126	31.712868	7.394510	41.671618	30.143870	26.962599	4.219385	43.380604	28.931284	16.098973	-4.596351	51.514107	36.082664	0.360176	-7.998072	62.884831	43.705621
-0.885000	-160.147433	-5.066637	-73.570646	0.065279	-0.174632	-0.029846	90.625407	-1.352626	-1.320081	14.750977	-1.956821	-24.603064	-41.160366	31.717267	7.395337	41.652165	30.143483	26.955808	4.222476	43.369765	28.939080	16.097024	-4.597462	51.513656	36.093584	0.360712	-8.005453	62.889387	43.702724
-0.875000	-160.147433	-5.066637	-73.570646	0.065282	-0.174638	-0.029846	90.645735	-1.332345	-1.319533	14.735544	-1.968806	-24.607144	-41.185726	31.715891	7.398808	41.638134	30.144292	26.945687	4.224484	43.368499	28.948411	16.098049	-4.597167	51.512949	36.102802	0.359643	-8.012719	62.899068	43.703470
-0.865000	-160.147433	-5.066637	-73.570646	0.065285	-0.174644	-0.029846	90.658517	-1.313388	-1.317548	14.716560	-1.968983	-24.611023	-41.208178	31.709404	7.403222	41.627704	30.147938	26.933123	4.225112	43.374466	28.956652	16.097803	-4.595987	51.512018	36.110801	0.351567	-8.017336	62.911423	43.708788
-0.855000	-160.147433	-5.066637	-73.570646	0.065288	-0.174651	-0.029845	90.660191	-1.299634	-1.313361	14.693077	-1.957712	-24.613617	-41.221251	31.701136	7.406774	41.618884	30.155157	26.920975	4.224612	43.382582	28.960743	16.093449	-4.594774	51.511160	36.118585	0.336040	-8.017888	62.922023	43.717021
-0.845000	-160.147433	-5.066637	-73.570646	0.065290	-0.174658	-0.029842	90.652957	-1.292063	-1.307169	14.665699	-1.939234	-24.613557	-41.222587	31.695541	7.408202	41.610544	30.165094	26.912398	4.223681	43.387072	28.958340	16.085070	-4.594249	51.509992	36.126448	0.317685	-8.014420	62.926030	43.724285
-0.835000	-160.147433	-5.066637	-73.570646	0.065294	-0.174664	-0.029838	90.642930	-1.288822	-1.299765	14.636521	-1.919878	-24.609127	-41.213606	31.695714	7.407192	41.602662	30.175424	26.908960	4.223143	43.383355	28.948770	16.075268	-4.594660	51.506896	36.133359	0.303246	-8.008132	62.919926	43.726102
-0.825000	-160.147433	-5.066637	-73.570646	0.065298	-0.174668	-0.029833	90.636740	-1.286750	-1.291910	14.608536	-1.905678	-24.598843	-41.197635	31.701433	7.404462	41.595929	30.183215	26.909576	4.223557	43.369627	28.933645	16.067314	-4.595766	51.499525	36.137421	0.297769	-8.000584	62.902725	43.719406
-0.815000	-160.147433	-5.066637	-73.570646	0.065304	-0.174668	-0.029826	90.638520	-1.283195	-1.283964	14.584905	-1.900346	-24.582339	-41.177739	31.709229	7.401495	41.591033	30.185996	26.910825	4.224974	43.347968	28.916919	16.063214	-4.597115	51.486396	36.137225	0.302197	-7.992898	62.876563	43.704011
